<?xml version="1.0" encoding="utf-8"?>

<!DOCTYPE svg PUBLIC "-//W3C//DTD SVG 1.1//EN" "http://www.w3.org/Graphics/SVG/1.1/DTD/svg11.dtd">
<svg version="1.1" id="Layer_1" xmlns="http://www.w3.org/2000/svg" xmlns:xlink="http://www.w3.org/1999/xlink" x="0px" y="0px"
	 viewBox="162.1481 49.1402 1595.9025 1821.7686" enable-background="new 162.1481 49.1402 1595.9025 1821.7686"
	 xml:space="preserve">
<g>
	<path fill="#E52929" stroke="#E52929" stroke-width="0.3" d="M400.98,79.96c4.21-1.34,8.67-0.92,13.02-0.96
		c303.98-0.01,607.96,0.01,911.9399-0.01c12.9301,0.14,24.6901,10.37,27.0801,23c1.21,4.65-0.36,9.48,0.7999,14.13
		c0.91,3.46,0.3401,7.2,1.6801,10.55c63.45,139.19,126.91,278.38,190.37,417.57c1.84,4.49-1.59,9.03-3.66,12.87
		c-6.77,10.35-15.48,19.25-24.1699,27.99c-9.73,9.85-20.5801,18.75-33.1001,24.81c-24.2599,12.03-53.0599,14.5-79.0399,6.88
		c-15.65-4.45-30.12-12.65-42.29-23.4c-0.2999-0.35-0.89-1.04-1.1799-1.39c-26.9-151.83-53.8-303.65-80.6801-455.48
		c-56.98-0.04-113.96-0.01-170.9399-0.01c15.1799,151.83,30.3999,303.66,45.6,455.49c-13.38,9.9-25.9501,21.34-41.4601,27.86
		c-29.23,13.11-64.25,12.36-92.8699-2.04c-13.49-6.45-24.61-16.61-36.6-25.35l0.83-0.68c-8.04-139.24-16.41-278.48-24.56-417.73
		c-0.77-12.52-1.42-25.05-2.28-37.57c-62.31,0.02-124.62,0-186.93,0.01c-3.83,151.76-7.62,303.52-11.52,455.28
		c0.22,0.17,0.68,0.5099,0.91,0.68c-11.49,7.96-22.67,16.38-34.37,24.03c-34.08,21.38-80.07,21.4-114.2,0.11
		c-11.55-7.53-22.59-15.81-33.88-23.72c0.34-0.24,1.01-0.72,1.34-0.96c11.68-151.79,23.08-303.61,34.73-455.41
		c-56.3-0.02-112.6-0.01-168.9,0c-23.1,151.83-46.21,303.65-69.32,455.48c-22.06,22.11-54.36,33.34-85.43,30.53
		c-22.57-1.82-44.49-10.97-61.61-25.81c-12.98-11.69-26.06-23.55-36.44-37.69c-2.58-4.18-6.27-8.79-5.45-13.95
		c63.66-139.68,127.37-279.34,191.02-419.03c1-3.29,0.66-6.85,1.32-10.22c-0.91-5.79-1.33-11.85,0.75-17.45
		C384.45,89.55,392,82.42,400.98,79.96z"/>
	<path fill="#FFFFFF" stroke="#FFFFFF" stroke-width="0.3" d="M377.33,591.99c23.11-151.83,46.22-303.65,69.32-455.48
		c56.3-0.01,112.6-0.02,168.9,0c-11.65,151.8-23.05,303.62-34.73,455.41c-0.33,0.24-1,0.72-1.34,0.96
		c-13.99,8.69-27.32,18.67-42.63,24.99c-31.38,13.62-67.54,15.67-100.34,6c-14.58-4.29-28.5-10.86-41.07-19.4
		c-5.19-3.54-10.33-7.16-15.5-10.72C379.07,593.15,378.2,592.56,377.33,591.99z"/>
	<path fill="#FFFFFF" stroke="#FFFFFF" stroke-width="0.3" d="M772.54,136.5c62.31-0.01,124.62,0.01,186.93-0.01
		c0.86,12.52,1.51,25.05,2.28,37.57c8.15,139.25,16.52,278.49,24.56,417.73l-0.83,0.68C975.32,599.03,965,605.34,954.78,611.8
		c-25.91,16.63-57.11,24.76-87.84,22.99c-18.46-1.03-36.73-5.5099-53.52-13.25c-12.23-5.73-23.6-13.08-35.35-19.69
		c-5.37-3.16-10.8-6.19-16.14-9.39c-0.23-0.17-0.69-0.51-0.91-0.68C764.92,440.02,768.71,288.26,772.54,136.5z"/>
	<path fill="#FFFFFF" stroke="#FFFFFF" stroke-width="0.3" d="M1110.8101,136.51c56.98,0,113.96-0.03,170.9399,0.01
		c26.88,151.83,53.78,303.65,80.6801,455.48c-3,1.9-5.9801,3.83-8.9,5.82c-0.27,0.18-0.8,0.55-1.0701,0.73
		c-12.1599,8.12-24.46,16.28-38.22,21.51c-5.64,2.24-11.42,4.12-17.27,5.69c-35.65,9.39-74.77,4.93-107.26-12.56
		c-11.6-6.24-22.1899-14.15-33.2999-21.19C1141.21,440.17,1125.99,288.34,1110.8101,136.51z"/>
	<path fill="#347190" stroke="#347190" stroke-width="0.3" d="M1156.41,592c11.11,7.04,21.7,14.95,33.2999,21.19
		c32.49,17.49,71.61,21.95,107.26,12.56c0.05,6.43,0.02,12.86,0.03,19.29c-36.51,10.16-76.9399,4.75-109.6-14.41
		c-4.7001-2.61-10.3101-1.1-15.41-1.43c-5.36,0.35-10.98-0.84-16.17,0.64c-11.3899,8.58-21.5599,18.93-34.1499,25.83
		c-15.64,8.93-33.62,13.9-51.66,13.54c-21.33,0.16-42.42-7.15-59.72-19.4901c-7.59-5.6899-14.8-11.86-22.13-17.8799
		c-1.74-1.45-3.72-2.8701-6.1-2.65c-7.38-0.06-14.75,0.01-22.12-0.03c-2.42-0.14-4.63,0.9301-6.57,2.25
		c-14.25,9.54-30.41,16.09-47.08,19.96c-12.9,3-26.2,3.66-39.4,3.46v-0.5c0-6.51-0.09-13.03,0.05-19.54
		c30.73,1.77,61.93-6.36,87.84-22.99c10.22-6.46,20.54-12.77,30.7-19.33c11.99,8.7401,23.11,18.9,36.6,25.35
		c28.6199,14.4,63.64,15.15,92.8699,2.04C1130.46,613.34,1143.03,601.9,1156.41,592z"/>
	<path fill="#216689" stroke="#216689" stroke-width="0.3" d="M536.85,617.87c15.31-6.32,28.64-16.3,42.63-24.99
		c11.29,7.91,22.33,16.19,33.88,23.72c34.13,21.29,80.12,21.27,114.2-0.11c11.7-7.65,22.88-16.07,34.37-24.03
		c5.34,3.2,10.77,6.23,16.14,9.39c11.75,6.61,23.12,13.96,35.35,19.69c16.79,7.7401,35.06,12.22,53.52,13.25
		c-0.14,6.51-0.05,13.03-0.05,19.54c-25.18-0.92-49.76-9.69-70.84-23.31c-3.23-2.31-7.31-1.84-11.04-1.84
		c-6.68,0.11-13.37-0.16-20.04,0.03c-3.66-0.07-6.1299,3.05-8.9,4.95c-9.72,7.2401-19.06,14.98-29.05,21.84
		c-17.71,11.48-38.9,17.75-60.04,16.96c-19.72-0.7401-39.29-7.09-55.41-18.52c-8.41-5.84-16.28-12.4-24.53-18.45
		c-3.1-2.14-5.67-5.17-9.19-6.6c-5.6-0.6-11.24,0-16.85-0.21c-4.09,0.12-8.57-0.7-12.22,1.6c-33.61,19.29-75.31,23.86-112.28,12.24
		c-0.01-6.38-0.02-12.77,0.01-19.15C469.31,633.54,505.47,631.49,536.85,617.87z"/>
	<path fill="#1B2326" stroke="#1B2326" stroke-width="0.3" d="M379.94,593.75c5.17,3.56,10.31,7.18,15.5,10.72
		c12.57,8.54,26.49,15.11,41.07,19.4c-0.03,6.38-0.02,12.77-0.01,19.15c0.01,271.99,0,543.98,0.01,815.96
		c-0.45,5.1801,4.22,9.9401,9.41,9.53c140.31,0.01,280.61-0.01,420.91,0.01c-0.05,17.28-0.19,34.5599,0.05,51.83
		c-18.52-0.59-37.23,5.3-51.86,16.72c-12.76,9.78-22.45,23.4801-27.44,38.75c-5.65,17.2301-5.29,36.37,1.03,53.37
		c6.63,17.9501,19.89,33.38,36.7,42.55c12.6,7.03,27.13,10.41,41.54,10c-0.1,14.41-0.18,28.84,0.01,43.26
		c-128.63,0-257.27,0-385.9,0c-9.99-0.23-20.06,0.7-29.95-1.0699c-17.35-2.8501-33.71-11.3301-46.07-23.8301
		c-15.14-14.9299-24.32-35.78-24.93-57.0499c-0.02-342.7101,0-685.42-0.02-1028.1301C379.74,607.87,379.71,600.81,379.94,593.75z"/>
	<path fill="#32393C" stroke="#32393C" stroke-width="0.3" d="M1352.46,598.55c0.27-0.18,0.8-0.55,1.0701-0.73
		c0,116.73-0.02,233.46-0.01,350.19c0.08,97.6799-0.15,195.37,0.12,293.05c-5.09-6.8101-9.9-13.8301-15.16-20.52
		c-9.9-12.11-25.9399-18.5601-41.47-17.2001c-0.03-186.1,0-372.2-0.01-558.3c9.17-2.69,18.25-5.85,26.71-10.36
		c3.8101-1.69,7.2101-4.37,11.26-5.5c5.88-0.58,11.8101,0.18,17.72-0.31C1352.79,618.76,1352.87,608.65,1352.46,598.55z"/>
	<path fill="#2F3436" stroke="#2F3436" stroke-width="0.3" d="M1314.24,620.06c13.76-5.23,26.0601-13.39,38.22-21.51
		c0.41,10.1,0.3301,20.21,0.23,30.32c-5.9099,0.49-11.84-0.27-17.72,0.31c-4.0499,1.13-7.45,3.81-11.26,5.5
		c-8.46,4.51-17.5399,7.67-26.71,10.36c-0.01-6.43,0.02-12.86-0.03-19.29C1302.8199,624.18,1308.6,622.3,1314.24,620.06z"/>
	<path fill="#2178A3" stroke="#2178A3" stroke-width="0.3" d="M548.78,630.78c3.65-2.3,8.1299-1.48,12.22-1.6
		c5.61,0.21,11.25-0.39,16.85,0.21c3.52,1.43,6.09,4.46,9.19,6.6c8.25,6.05,16.12,12.61,24.53,18.45
		c16.12,11.43,35.69,17.78,55.41,18.52c21.14,0.79,42.33-5.48,60.04-16.96c9.99-6.86,19.33-14.6,29.05-21.84
		c2.77-1.9,5.24-5.02,8.9-4.95c6.67-0.19,13.36,0.08,20.04-0.03c3.73,0,7.81-0.47,11.04,1.84c21.08,13.62,45.66,22.39,70.84,23.31
		v0.5c-0.08,35.22-0.18,70.45,0,105.67c-6.49,0.01-12.98-0.02-19.46,0.02c6.34,29.38,12.86,58.72,19.28,88.09
		c0.23,68.77,0.08,137.55,0.09,206.3201c-0.24,7.2599,0.62,14.58-0.57,21.7899c-8.42-4.75-13.56-14.08-13.77-23.65
		c-1.05-21.0099-0.61-42.0599-0.71-63.08c0-16.33,0.01-32.66,0-48.99c-11.08,0-22.16,0-33.24,0c-0.03,30,0,60-0.01,90
		c-0.13,11.76,0.33,23.58,2.15,35.22c1.06,7.7101,4.1,15.12,8.8,21.3401c8.75,11.9199,23.08,18.8799,37.59,20.46
		c-0.55,25.3199-0.04,50.66-0.25,75.98c-0.1,3.51,0.27,7.01,0.73,10.5c-5.29,24.86-10.86,49.66-16.26,74.5c5.2,0,10.4-0.01,15.61,0
		c-0.09,66.51-0.04,133.02-0.04,199.52c-140.3-0.02-280.6,0-420.91-0.01c-5.19,0.41-9.86-4.35-9.41-9.53
		c-0.01-271.98,0-543.97-0.01-815.96C473.47,654.64,515.17,650.07,548.78,630.78 M543.38,867.31
		c23.23,16.88,46.69,33.46,70.03,50.18c2.82,1.87,5.33,4.24,8.47,5.6c-16.67-27.42-33.45-54.76-50.19-82.14
		C562.26,849.74,552.81,858.51,543.38,867.31 M652.76,941c-0.02,55-0.02,110,0,165c24.39,0,48.79,0.01,73.19-0.01
		c9.31-0.4399,18.71-0.0699,27.93-1.6799c10.88-1.8601,21.12-7.8301,27.53-16.91c10.41-14.25,13.13-34.98,3.6801-50.39
		c-5.45-9.23-15.06-15.11-25.11-18.18c14.15-6.14,23.43-21.5,22.8-36.84c0.17-20.02-16.91-37.75-36.6-39.74
		c-13.98-1.92-28.12-1.06-42.18-1.25C686.92,941,669.84,940.99,652.76,941 M543.38,1166.0699c9.33,8.92,18.86,17.64,28.31,26.4401
		c16.85-27.51,33.71-55.01,50.47-82.5701C595.73,1128.4,569.64,1147.37,543.38,1166.0699z"/>
	<path fill="#3886AC" stroke="#3886AC" stroke-width="0.3" d="M953.37,631.41c1.94-1.3199,4.15-2.39,6.57-2.25
		c7.37,0.04,14.74-0.03,22.12,0.03c2.38-0.22,4.36,1.2,6.1,2.65c7.33,6.02,14.54,12.19,22.13,17.8799
		c17.3,12.34,38.3901,19.65,59.72,19.4901c18.04,0.36,36.02-4.61,51.66-13.54c12.59-6.9,22.76-17.25,34.1499-25.83
		c5.1901-1.48,10.8101-0.29,16.17-0.64c5.1,0.33,10.71-1.18,15.41,1.43c32.66,19.16,73.09,24.57,109.6,14.41
		c0.01,186.1-0.02,372.2,0.01,558.3c-15.91,1.4-30.74,10.98-39.3,24.3401c-10.1,15.95-9.75,37.9199,1.2101,53.36
		c12.6799,17.4299,25.46,34.7999,38.1599,52.22c-0.0699,3.47-0.1699,6.95-0.12,10.4399c-16.9299-22.99-33.6599-46.13-50.64-69.08
		c-12.6399-16.54-36.49-22.86-55.75-15.11c-12.88,5.4-24.37,15.29-29.58,28.49c-5.41,13.3101-4.73,29.09,2.24,41.71
		c2.15,4.02,5.05,7.5601,7.71,11.26c15.16,20.73,30.3201,41.4601,45.4901,62.1901c-1.7201,1.2-3.4301,2.4199-5.13,3.64
		c-66.0801-90.3-132.14-180.62-198.21-270.92c-5.21-6.72-9.52-14.28-16.07-19.83c-14.64-12.75-37.08-15.29-54.2-6.15
		c-7.84,4.4-15.2,10.09-20.14,17.71c-10.47,15.4401-10.96,36.99-0.88,52.74c3.7,5.55,7.81,10.8,11.7,16.22
		c66.31,90.65,132.64,181.3,198.9399,271.9601c-88.5299-0.04-177.0699-0.03-265.6099-0.01c0-66.5-0.05-133.01,0.04-199.52
		c7.69,0,15.39-0.01,23.08,0c-6.5-29.29-12.79-58.63-19.35-87.91c-1.08,4.4501-2.0099,8.9501-3.08,13.41
		c-0.46-3.49-0.83-6.99-0.73-10.5c0.21-25.3199-0.3-50.66,0.25-75.98c10.93,1.33,22.02,1.35,32.98,0.39
		c15.82-1.54,32.08-8.79,40.83-22.5901c7.4301-11.48,8.05-25.58,8.71-38.8199c0.9-35.32,0.24-70.66,0.44-106
		c-11.18,0-22.35-0.02-33.52,0.02c0.04,29.33,0,58.65,0.02,87.98c-0.12,10.3199-0.02,20.71-1.41,30.97
		c-1.25,9.9301-9.57,18.13-19.34,19.86c-9.81,1.74-20.51,1.61-29.52-3.11c1.19-7.21,0.33-14.53,0.57-21.7899
		c-0.01-68.7701,0.14-137.55-0.09-206.3201c6.65-29.33,12.94-58.74,19.4-88.1c-6.41-0.02-12.82-0.01-19.22-0.01
		c-0.18-35.22-0.08-70.45,0-105.67c13.2,0.2,26.5-0.46,39.4-3.46C922.96,647.5,939.12,640.95,953.37,631.41 M1162.4,879.43
		c-6.29,16.96-13.24,33.72-19.13,50.81c22.37-22.96,44.5699-46.1,66.79-69.21c-10.8201-6.94-21.7301-13.73-32.51-20.73
		C1172.14,853.19,1167.52,866.42,1162.4,879.43 M967.45,941.01c19.8,31.38,39.59,62.77,59.44,94.12c0.61,0.84,0.9,1.79,0.86,2.85
		c0.01,22.67-0.01,45.34,0.01,68.01c11.16,0.02,22.3199,0.01,33.48,0c0.01-22.33,0.02-44.65-0.01-66.98
		c-0.33-2.7,1.74-4.72,2.97-6.88c19.24-30.36,38.4-60.76,57.62-91.13c-12.8999,0-25.7999,0-38.7,0
		c-12.52,21.69-25.14,43.31-37.61,65.03c-13-21.61-25.79-43.36-38.7-65.04C993.69,941.01,980.57,940.98,967.45,941.01
		 M1118.42,1121.48c20.61,24.72,41.14,49.51,61.9299,74.09c7.9301-10.1799,16.15-20.1399,24.0601-30.34
		C1175.6899,1150.75,1147.23,1135.75,1118.42,1121.48z"/>
	<path fill="#FDC00F" stroke="#FDC00F" stroke-width="0.3" d="M847.43,760.52c6.48-0.04,12.97-0.01,19.46-0.02
		c6.4,0,12.81-0.01,19.22,0.01c-6.46,29.36-12.75,58.77-19.4,88.1C860.29,819.24,853.77,789.9,847.43,760.52z"/>
	<path fill="#FDC00F" stroke="#FDC00F" stroke-width="0.3" d="M543.38,867.31c9.43-8.8,18.88-17.57,28.31-26.36
		c16.74,27.38,33.52,54.72,50.19,82.14c-3.14-1.36-5.65-3.73-8.47-5.6C590.07,900.77,566.61,884.19,543.38,867.31z"/>
	<path fill="#FDC00F" stroke="#FDC00F" stroke-width="0.3" d="M1162.4,879.43c5.12-13.01,9.74-26.24,15.15-39.13
		c10.7799,7,21.6899,13.79,32.51,20.73c-22.2201,23.11-44.42,46.25-66.79,69.21C1149.16,913.15,1156.11,896.39,1162.4,879.43z"/>
	<path fill="#FFFFFF" stroke="#FFFFFF" stroke-width="0.3" d="M652.76,941c17.08-0.01,34.16,0,51.24,0
		c14.06,0.19,28.2-0.67,42.18,1.25c19.69,1.99,36.77,19.72,36.6,39.74c0.6299,15.34-8.65,30.7-22.8,36.84
		c10.05,3.07,19.66,8.95,25.11,18.18c9.45,15.41,6.73,36.14-3.6801,50.39c-6.41,9.08-16.65,15.0499-27.53,16.91
		c-9.22,1.61-18.62,1.24-27.93,1.6799c-24.4,0.02-48.8,0.01-73.19,0.01C652.74,1051,652.74,996,652.76,941 M686.25,969.01
		c0,12.66,0.01,25.32-0.01,37.98c12.59,0.21,25.16-0.35,37.74-0.25c6.58-0.15,13.75-0.38,19.22-4.52c9.58-6.78,9.41-23.58-0.77-29.7
		c-5.84-3.48-12.9-3.07-19.44-3.28C710.74,969.43,698.5,968.81,686.25,969.01 M686.25,1035.01c0,14.3199,0,28.65,0,42.99
		c15.28,0.0699,30.56-0.03,45.84-0.39c5.36-0.25,11.02-0.78,15.61-3.83c11.05-6.79,11.44-24.9301,1.35-32.75
		c-6.18-5-14.5-5.12-22.05-5.61C713.42,1035.03,699.84,1034.92,686.25,1035.01z"/>
	<path fill="#FFFFFF" stroke="#FFFFFF" stroke-width="0.3" d="M818.51,941c11.08,0,22.16,0,33.24,0c0.01,16.33,0,32.66,0,48.99
		c0.1,21.02-0.34,42.0701,0.71,63.08c0.21,9.5701,5.35,18.9,13.77,23.65c9.01,4.72,19.71,4.85,29.52,3.11
		c9.77-1.73,18.09-9.9299,19.34-19.86c1.39-10.26,1.29-20.65,1.41-30.97c-0.02-29.33,0.02-58.65-0.02-87.98
		c11.17-0.04,22.34-0.02,33.52-0.02c-0.2,35.34,0.46,70.68-0.44,106c-0.66,13.24-1.28,27.34-8.71,38.8199
		c-8.75,13.8-25.0099,21.05-40.83,22.5901c-10.96,0.96-22.05,0.9399-32.98-0.39c-14.5099-1.5801-28.84-8.54-37.59-20.46
		c-4.7-6.2201-7.74-13.63-8.8-21.3401c-1.82-11.64-2.28-23.46-2.15-35.22C818.51,1001,818.48,971,818.51,941z"/>
	<path fill="#FFFFFF" stroke="#FFFFFF" stroke-width="0.3" d="M967.45,941.01c13.12-0.03,26.24,0,39.36-0.02
		c12.91,21.68,25.7,43.43,38.7,65.04c12.47-21.72,25.09-43.34,37.61-65.03c12.9,0,25.8,0,38.7,0
		c-19.22,30.37-38.38,60.77-57.62,91.13c-1.23,2.16-3.2999,4.1801-2.97,6.88c0.03,22.33,0.02,44.65,0.01,66.98
		c-11.16,0.01-22.3199,0.02-33.48,0c-0.02-22.67,0-45.34-0.01-68.01c0.04-1.0599-0.25-2.01-0.86-2.85
		C1007.04,1003.78,987.25,972.39,967.45,941.01z"/>
	<path fill="#2178A3" stroke="#2178A3" stroke-width="0.3" d="M686.25,969.01c12.25-0.2,24.49,0.42,36.74,0.23
		c6.54,0.21,13.6-0.2,19.44,3.28c10.18,6.12,10.35,22.92,0.77,29.7c-5.47,4.14-12.64,4.3701-19.22,4.52
		c-12.58-0.1-25.15,0.46-37.74,0.25C686.26,994.33,686.25,981.67,686.25,969.01z"/>
	<path fill="#2178A3" stroke="#2178A3" stroke-width="0.3" d="M686.25,1035.01c13.59-0.09,27.17,0.02,40.75,0.41
		c7.55,0.49,15.87,0.61,22.05,5.61c10.09,7.8199,9.7,25.96-1.35,32.75c-4.59,3.0499-10.25,3.58-15.61,3.83
		c-15.28,0.36-30.56,0.46-45.84,0.39C686.25,1063.66,686.25,1049.33,686.25,1035.01z"/>
	<path fill="#F9B23E" stroke="#F9B23E" stroke-width="0.3" d="M942.82,1109.9c17.12-9.14,39.56-6.6,54.2,6.15
		c6.55,5.5499,10.86,13.11,16.07,19.83c66.07,90.3,132.1299,180.62,198.21,270.92c1.7-1.2201,3.4099-2.4401,5.13-3.64
		c-15.17-20.73-30.3301-41.4601-45.4901-62.1901c-2.6599-3.7-5.5599-7.24-7.71-11.26c-6.97-12.62-7.65-28.3999-2.24-41.71
		c5.21-13.2,16.7-23.09,29.58-28.49c19.26-7.75,43.1101-1.4301,55.75,15.11c16.9801,22.95,33.7101,46.09,50.64,69.08l0.24,0.4
		c1.6801-1.28,3.3301-2.62,5.01-3.9199c-1.73-2.3101-3.4399-4.62-5.13-6.92c-12.7-17.42-25.48-34.79-38.1599-52.22
		c-10.9601-15.4401-11.3101-37.41-1.2101-53.36c8.5601-13.3601,23.39-22.9401,39.3-24.3401c15.53-1.36,31.5699,5.0901,41.47,17.2001
		c5.26,6.6899,10.0701,13.71,15.16,20.52c9.7999,13.3899,19.59,26.7999,29.4,40.1899c1.6699-1.25,3.35-2.5,5.0399-3.74
		c-7.22-9.98-14.5299-19.89-21.7899-29.8201c-5.5901-7.3899-9.2201-16.2899-9.91-25.5499c-1.63-17.23,6.7-34.9301,21.14-44.5
		c14.85-11.5701,36.49-13.15,52.9199-4.01c6.1801,3.4301,11.7001,8.11,15.8301,13.88c21.1899,28.9399,42.3199,57.9299,63.5599,86.84
		c-6.0199,3.6901-11.47,8.2001-17.22,12.29c-91.26,66.71-182.46,133.5-273.73,200.2c-15.76,11.74-31.92,22.9601-47.41,35.04
		c-13-17.8-26.01-35.5699-39.03-53.35C1066.14,1377.87,999.81,1287.22,933.5,1196.5699c-3.89-5.4199-8-10.6699-11.7-16.22
		c-10.08-15.75-9.59-37.2999,0.88-52.74C927.62,1119.99,934.98,1114.3,942.82,1109.9z"/>
	<path fill="#FDC00F" stroke="#FDC00F" stroke-width="0.3" d="M543.38,1166.0699c26.26-18.7,52.35-37.6699,78.78-56.13
		C605.4,1137.5,588.54,1165,571.69,1192.51C562.24,1183.71,552.71,1174.99,543.38,1166.0699z"/>
	<path fill="#FDC00F" stroke="#FDC00F" stroke-width="0.3" d="M1118.42,1121.48c28.8099,14.27,57.2699,29.27,85.99,43.75
		c-7.91,10.2001-16.13,20.16-24.0601,30.34C1159.5601,1170.99,1139.03,1146.2,1118.42,1121.48z"/>
	<path fill="#FDC00F" stroke="#FDC00F" stroke-width="0.3" d="M867.52,1194.5c1.07-4.46,2-8.96,3.08-13.41
		c6.56,29.28,12.85,58.62,19.35,87.91c-7.69-0.01-15.39,0-23.08,0c-5.21-0.01-10.41,0-15.61,0
		C856.66,1244.16,862.23,1219.36,867.52,1194.5z"/>
	<path fill="#FAC165" stroke="#FAC165" stroke-width="0.3" d="M1492.61,1286.64c5.75-4.09,11.2001-8.6,17.22-12.29
		c18.6901,25.55,37.38,51.1,56.0801,76.65c4.09,5.85,8.71,11.37,12.46,17.4399c19.2,74.1001,38.33,148.2301,57.37,222.38
		c-69.39,50.79-138.76,101.5901-208.22,152.3c-30.63-16.98-61.3301-33.86-91.9301-50.88c-1.87-1.0599-3.73-2.05-5.6-3.01
		c-5.83,3.96-13.2,3.53-19.9,3.16c-19.9-1.76-38.89-8.34-58.21-12.96c-8.02-2.0801-16.05-4.1101-24.0601-6.2001
		c-6.46-32.09-13.12-64.14-19.61-96.21c-0.62-2.5601-0.63-5.36-1.88-7.6801c-11.8099-15.6799-23.26-31.63-34.86-47.46
		c15.49-12.08,31.65-23.3,47.41-35.04C1310.15,1420.14,1401.35,1353.35,1492.61,1286.64z"/>
	<path fill="#32393C" stroke="#32393C" stroke-width="0.3" d="M1297.08,1333.26c1.6901,2.3,3.4,4.61,5.13,6.92
		c-1.6799,1.2999-3.33,2.6399-5.01,3.9199l-0.24-0.4C1296.91,1340.21,1297.01,1336.73,1297.08,1333.26z"/>
	<path fill="#32393C" stroke="#32393C" stroke-width="0.3" d="M866.83,1468.52c88.54-0.02,177.08-0.03,265.6099,0.01
		c13.02,17.78,26.03,35.5499,39.03,53.35c11.6,15.83,23.05,31.78,34.86,47.46c-1.2,2.29-3.37,3.75-5.35,5.28
		c-18.12-25.0699-36.24-50.13-54.33-75.21c-3.79-5.49-8.7101-10.1901-14.41-13.66c-14.29-8.9301-33.29-9.67-48.1799-1.72
		c-9.41,5.14-17.92,12.51-22.8101,22.2c-8.28,15.6801-7.12,35.89,3.24,50.34c18.13,25.16,36.33,50.26,54.46,75.42
		c3.52,5.08,7.7101,9.75,12.8201,13.29c4.79,3.6599,10.87,4.71,16.47,6.5499c26.4,7.61,53.01,14.4401,79.58,21.4
		c8.01,2.09,16.04,4.12,24.0601,6.2001c19.3199,4.62,38.3099,11.2,58.21,12.96c6.7001,0.37,14.0701,0.7999,19.9-3.16
		c1.87,0.96,3.73,1.9501,5.6,3.01c-11.9399,15.11-28.9099,26.28-47.74,30.59c-7.47,1.8-15.1899,2.38-22.86,2.17
		c-132.71,0-265.42,0-398.13,0c-0.19-14.42-0.11-28.85-0.01-43.26c15.48-0.54,30.83-5.47,43.52-14.39
		c16.37-11.3099,28.33-28.9,32.62-48.35c4.47-19.37,1.47-40.35-8.37-57.63c-13.4-24.24-40.03-40.39-67.74-41.02
		C866.64,1503.08,866.78,1485.8,866.83,1468.52z"/>
	<path fill="#F9B23E" stroke="#F9B23E" stroke-width="0.3" d="M1084.0601,1484.03c14.8899-7.9501,33.8899-7.2101,48.1799,1.72
		c5.7,3.47,10.62,8.17,14.41,13.66c18.09,25.08,36.21,50.14,54.33,75.21c1.98-1.53,4.15-2.99,5.35-5.28
		c1.25,2.3201,1.26,5.12,1.88,7.6801c6.49,32.0699,13.15,64.12,19.61,96.21c-26.5699-6.96-53.1799-13.79-79.58-21.4
		c-5.6-1.84-11.6799-2.89-16.47-6.5499c-5.11-3.54-9.3-8.2101-12.8201-13.29c-18.13-25.16-36.33-50.26-54.46-75.42
		c-10.36-14.45-11.52-34.6599-3.24-50.34C1066.14,1496.54,1074.65,1489.17,1084.0601,1484.03z"/>
	<path fill="#FDC00F" stroke="#FDC00F" stroke-width="0.3" d="M815.02,1537.0699c14.63-11.4199,33.34-17.3099,51.86-16.72
		c27.71,0.63,54.34,16.78,67.74,41.02c9.84,17.28,12.84,38.26,8.37,57.63c-4.29,19.45-16.25,37.04-32.62,48.35
		c-12.69,8.92-28.04,13.85-43.52,14.39c-14.41,0.41-28.94-2.97-41.54-10c-16.81-9.17-30.07-24.6-36.7-42.55
		c-6.32-17-6.68-36.1399-1.03-53.37C792.57,1560.55,802.26,1546.85,815.02,1537.0699z"/>
	<path fill="#1B2326" stroke="#1B2326" stroke-width="0.3" d="M1680.84,1557.78c3.17-2.66,8.5701-2.02,10.86,1.52
		c12.91,17.73,25.9501,35.38,38.8201,53.1399c2.63,3.42,1.36,8.63-2.29,10.79c-98.5499,72.09-197.11,144.2001-295.6699,216.3
		c-3.14,2.53-8.3501,1.9099-10.64-1.4601c-12.9601-17.6899-25.92-35.38-38.8301-53.1c-2.45-3.1-1.86-8.0499,1.37-10.35
		c14.3501-10.51,28.7001-21.01,43.0601-31.5c69.46-50.71,138.83-101.51,208.22-152.3
		C1650.74,1579.75,1665.83,1568.8101,1680.84,1557.78z"/>
</g>
</svg>
